<?xml version="1.0" encoding="utf-8"?>
<!-- Svg Vector Icons : http://www.onlinewebfonts.com/icon -->
<!DOCTYPE svg PUBLIC "-//W3C//DTD SVG 1.1//EN" "http://www.w3.org/Graphics/SVG/1.1/DTD/svg11.dtd">
<svg version="1.1" xmlns="http://www.w3.org/2000/svg" xmlns:xlink="http://www.w3.org/1999/xlink" x="0px" y="0px" viewBox="0 0 256 256" enable-background="new 0 0 256 256" xml:space="preserve">
<metadata> Svg Vector Icons : http://www.onlinewebfonts.com/icon </metadata>
<g><g><g><path fill="#000000" d="M123.8,10.2c-9.2,1.3-16.2,6.3-19.6,14l-1.1,2.5l-1.3-1.1c-2-1.5-6.5-3.1-10.1-3.5c-7.2-0.8-15.9,2.7-22,8.7c-6.7,6.7-9.1,14.6-7,23.3c0.3,1.3,0.2,1.4-3.4,1.9c-5,0.8-9.2,2.9-12.8,6.6c-5,5-8.4,13.6-8.5,20.8c0,6.6,3.2,14,7.6,17.7l2,1.6l-2.8,2.9c-7.6,7.6-8.8,19.2-3.2,30.6c3.7,7.5,10,12.3,17.7,13.5c3.6,0.5,3.7,0.6,3.4,1.9c-2.1,8.7,0.4,16.7,7.1,23.3c6.1,6,14.6,9.5,21.6,8.8c3.8-0.4,8.4-2,10.4-3.5l1.3-1.1l1.1,2.5c2.8,6.2,8.1,10.9,14.8,13c4.9,1.5,13.2,1.5,18.1,0c6.8-2.1,12.1-6.8,14.8-13l1.1-2.5l1.3,1.1c3.9,3,11.5,4.3,17.3,3c13.3-3.1,23.4-15.3,22.5-27c-0.2-2.1-0.5-4.2-0.6-4.8c-0.3-1,0.1-1.1,3.4-1.6c7.7-1.2,14-6,17.7-13.5c5.6-11.3,4.4-23-3.1-30.4l-3-3l2.3-2c7.9-7,9.5-19.4,3.9-31c-3.6-7.5-10.1-12.4-17.8-13.7c-3.3-0.5-3.7-0.7-3.4-1.6c0.2-0.6,0.4-2.8,0.6-4.8c0.7-9.3-5.3-19.1-15.3-24.3c-3.8-2-9-3.4-12.4-3.4c-3.2,0-8.2,1.4-11,3.2l-2.5,1.5l-1.3-3c-1.9-4.1-4.1-6.6-7.8-9.1C138.4,11,130.7,9.3,123.8,10.2z M139.6,44.5c19,3.6,34.4,15.5,42.7,32.8c8,16.7,8,34.7,0,51.4c-7.8,16.2-21.6,27.4-39.5,32.1c-5.2,1.4-16.8,1.9-22.8,1c-31-4.5-53.7-33.6-50.3-64.6c2.9-26.5,22.6-48,48.2-52.7C123.5,43.5,134.3,43.5,139.6,44.5z"/><path fill="#000000" d="M125.1,52.4c-8.6,1.1-14.1,2.8-20.2,6C91.2,65.8,81.7,79,79,94.3c-5.7,32.8,21.6,62.2,54.7,58.9c18.1-1.9,33.6-12.9,41.1-29.3c3.3-7,4.2-11.7,4.2-21c0-6.9-0.2-8.9-1.2-12.7c-4.6-16.7-16.8-29.8-33.2-35.4C139.5,53.1,129.5,51.9,125.1,52.4z M152.7,82.3c1.5,0.8,3.2,2.3,3.8,3.1c1.2,1.6,1.5,4.8,0.6,6.5c-0.3,0.5-5.9,8.6-12.5,17.8c-9.3,13.1-12.3,17-13.8,17.7c-2.8,1.4-6.8,1.7-10.4,0.7l-3-0.9l-7.1-9.4c-10.7-14.2-12-16.3-12-18.6c0-4.9,7.9-9.7,12.1-7.5c0.6,0.3,4,4.5,7.5,9.3c3.5,4.8,6.6,8.7,6.8,8.7c0.2,0,4.2-5.7,9.1-12.6c4.8-6.9,9.3-13.2,10-14.1C146.3,80.3,148.8,80,152.7,82.3z"/><path fill="#000000" d="M68.9,188.3c-3.9,7.7-14,22.6-21.5,31.5l-3.6,4.3l2.3,0.3c3.3,0.5,14.1-0.6,22.7-2.4c6.4-1.3,7.7-1.4,8-0.8c0.3,0.4,1.9,2.8,3.7,5.2c7.7,10.4,18,21,19,19.4c0.6-0.9,8-23.4,9.5-28.7c0.6-2.3,1.7-6.7,2.4-9.8l1.2-5.6l-3-1.5c-1.6-0.8-4.6-3.2-6.7-5.2l-3.7-3.6l-2.6,0.7c-6.7,1.6-15.6,0.3-22.8-3.5c-1.7-0.9-3.3-1.7-3.5-1.8C70,186.6,69.4,187.4,68.9,188.3z"/><path fill="#000000" d="M183.1,188.3c-5.6,2.9-10.9,4.3-16.4,4.3c-2.8,0-6-0.3-7.3-0.6l-2.3-0.6l-3.8,3.6c-2.1,2-5.1,4.3-6.8,5.1c-3.4,1.8-3.3,0.7-0.7,11.7c2.2,9.1,9.2,31.1,10.8,33.9c1,1.6,8.7-6,17.2-16.8c2.2-2.9,4.4-5.9,5-6.8c0.7-1.2,1.3-1.6,2-1.4c13.3,3,24,4.4,28.7,3.8l2.8-0.3l-4.1-5c-6.6-7.9-13.6-18.2-21.2-31.1l-0.8-1.4L183.1,188.3z"/></g></g></g>
</svg>